X Lossless Decoder version 20181019 (151.1)

XLD extraction logfile from 2019-03-24 13:58:55 +0100

Die drei Fragezeichen / 100 - (B) - Toteninsel - Das vergessene Volk

Used drive : ASUS BW-16D1HT (revision 3.01)
Media type : Pressed CD

Ripper mode             : XLD Secure Ripper
Disable audio cache     : OK for the drive with a cache less than 1375KiB
Make use of C2 pointers : NO
Read offset correction  : 6
Max retry count         : 40
Gap status              : Analyzed, Appended

TOC of the extracted CD
     Track |   Start  |  Length  | Start sector | End sector 
    ---------------------------------------------------------
        1  | 00:00:00 | 08:20:63 |         0    |    37562   
        2  | 08:20:63 | 09:29:59 |     37563    |    80296   
        3  | 17:50:47 | 10:07:16 |     80297    |   125837   
        4  | 27:57:63 | 08:30:10 |    125838    |   164097   
        5  | 36:27:73 | 12:14:69 |    164098    |   219216   
        6  | 48:42:67 | 07:33:68 |    219217    |   253259   

List of alternate offset correction values
        #  | Absolute | Relative | Confidence 
    ------------------------------------------
        1  |     -6   |    -12   |     15     

AccurateRip Summary (DiscID: 000d6e91-004824ae-4f0d3006)
    Track 01 : OK (v1+v2, confidence 71/86)
    Track 02 : OK (v1+v2, confidence 72/87)
    Track 03 : OK (v1+v2, confidence 71/86)
    Track 04 : OK (v1+v2, confidence 72/87)
    Track 05 : OK (v1+v2, confidence 72/86)
    Track 06 : OK (v1+v2, confidence 71/85)
        ->All tracks accurately ripped.

All Tracks
    Filename : ~/Projects/Audiobooks/_temp/100 - (B) - Toteninsel - Das vergessene Volk.m4a
    CRC32 hash               : E7F706A7
    CRC32 hash (skip zero)   : EE5303DB
    Statistics
        Read error                           : 0
        Jitter error (maybe fixed)           : 0
        Retry sector count                   : 0
        Damaged sector count                 : 0

Track 01
    Pre-gap length : 00:02:00

    CRC32 hash               : C1F16A7F
    CRC32 hash (skip zero)   : 13056D6F
    AccurateRip v1 signature : 4BFBF16F
    AccurateRip v2 signature : 5C9643B9
        ->Accurately ripped (v1+v2, confidence 28+43/86)
    Statistics
        Read error                           : 0
        Jitter error (maybe fixed)           : 0
        Retry sector count                   : 0
        Damaged sector count                 : 0

Track 02

    CRC32 hash               : 5A393A3E
    CRC32 hash (skip zero)   : B36805AA
    AccurateRip v1 signature : B9D5E542
    AccurateRip v2 signature : A01AAD34
        ->Accurately ripped (v1+v2, confidence 28+44/87)
    Statistics
        Read error                           : 0
        Jitter error (maybe fixed)           : 0
        Retry sector count                   : 0
        Damaged sector count                 : 0

Track 03

    CRC32 hash               : 6C24E8A9
    CRC32 hash (skip zero)   : B45DC648
    AccurateRip v1 signature : 29A7C9E8
    AccurateRip v2 signature : F791FEC0
        ->Accurately ripped (v1+v2, confidence 28+43/86)
    Statistics
        Read error                           : 0
        Jitter error (maybe fixed)           : 0
        Retry sector count                   : 0
        Damaged sector count                 : 0

Track 04

    CRC32 hash               : 1F16375D
    CRC32 hash (skip zero)   : EFC13413
    AccurateRip v1 signature : 687D2988
    AccurateRip v2 signature : 15AE1938
        ->Accurately ripped (v1+v2, confidence 28+44/87)
    Statistics
        Read error                           : 0
        Jitter error (maybe fixed)           : 0
        Retry sector count                   : 0
        Damaged sector count                 : 0

Track 05

    CRC32 hash               : 5FB9DC0F
    CRC32 hash (skip zero)   : 99FEACAA
    AccurateRip v1 signature : 0101979B
    AccurateRip v2 signature : A8DE93B3
        ->Accurately ripped (v1+v2, confidence 28+44/86)
    Statistics
        Read error                           : 0
        Jitter error (maybe fixed)           : 0
        Retry sector count                   : 0
        Damaged sector count                 : 0

Track 06

    CRC32 hash               : 0A45DC0D
    CRC32 hash (skip zero)   : 4FB10CD3
    AccurateRip v1 signature : 5552DB37
    AccurateRip v2 signature : 0243E829
        ->Accurately ripped (v1+v2, confidence 28+43/85)
    Statistics
        Read error                           : 0
        Jitter error (maybe fixed)           : 0
        Retry sector count                   : 0
        Damaged sector count                 : 0

No errors occurred

End of status report
